<svg xmlns="http://www.w3.org/2000/svg" viewBox="0 0 48 48" id="baseball"><g><g><ellipse cx="25.6" cy="43.6" fill="#45413c" opacity=".15" rx="16.4" ry="2.1"></ellipse><circle cx="24" cy="22" r="19.9" fill="#f0f0f0"></circle><path fill="#fff" d="M24 7.8c10 0 18.3 7.4 19.7 17.1.1-.9.2-1.9.2-2.8 0-11.1-8.9-20-19.9-20C13 2.1 4.1 11 4.1 22c0 1 .1 1.9.2 2.8 1.4-9.6 9.7-17 19.7-17z"></path><circle cx="24" cy="22" r="19.9" fill="none" stroke="#45413c" stroke-linecap="round" stroke-linejoin="round" stroke-miterlimit="10"></circle><path fill="none" stroke="#45413c" stroke-linecap="round" stroke-linejoin="round" stroke-miterlimit="10" d="M29 2.7c0 .1-1.4 9.8 3.5 17.2 4.2 6.2 9.4 6.5 10.9 6.4M4.9 16.3c1 .2 8.4 2.1 12.7 7.8 4.1 5.5 2.6 15.2 2.2 17.4"></path><path fill="#ff866e" stroke="#45413c" stroke-linecap="round" stroke-linejoin="round" stroke-miterlimit="10" d="M30.6 6.5H27c-.8 0-1.4-.7-1.4-1.4 0-.8.7-1.4 1.4-1.4h3.6c.8 0 1.4.7 1.4 1.4 0 .8-.7 1.4-1.4 1.4z"></path><path fill="#ff6242" stroke="#45413c" stroke-linecap="round" stroke-linejoin="round" stroke-miterlimit="10" d="M31.1 12.7l-3.5.6c-.8.1-1.5-.4-1.6-1.2-.1-.8.4-1.5 1.2-1.6l3.5-.6c.8-.1 1.5.4 1.6 1.2.1.7-.5 1.4-1.2 1.6zM14.2 18.5l-1.8 3.1c-.4.7-1.3.9-2 .5s-.9-1.3-.5-2l1.8-3.1c.4-.7 1.3-.9 2-.5s.9 1.3.5 2z"></path><path fill="#ff866e" stroke="#45413c" stroke-linecap="round" stroke-linejoin="round" stroke-miterlimit="10" d="m8.8 15.6-1 3.4c-.2.8-1 1.2-1.8.9-.8-.2-1.2-1-.9-1.8l1-3.4c.2-.8 1-1.2 1.8-.9.7.3 1.2 1.1.9 1.8z"></path><path fill="#ff6242" stroke="#45413c" stroke-linecap="round" stroke-linejoin="round" stroke-miterlimit="10" d="M19.2 22.9l-2.7 2.4c-.6.5-1.5.5-2-.1s-.5-1.5.1-2l2.7-2.4c.6-.5 1.5-.5 2 .1s.4 1.5-.1 2zM21.8 29.3l-3.4 1c-.8.2-1.5-.2-1.8-1-.2-.8.2-1.5 1-1.8l3.4-1c.8-.2 1.5.2 1.8 1 .2.8-.2 1.6-1 1.8zM22.4 35.8l-3.6-.1c-.8 0-1.4-.7-1.4-1.5s.7-1.4 1.5-1.4l3.6.1c.8 0 1.4.7 1.4 1.5-.1.8-.7 1.5-1.5 1.4zM21.5 41.6l-3.5-.7c-.8-.2-1.3-.9-1.1-1.7.2-.8.9-1.3 1.7-1.1l3.5.7c.8.2 1.3.9 1.1 1.7-.1.7-.9 1.2-1.7 1.1zM33.5 18.3l-3 1.9c-.7.4-1.5.2-2-.4-.4-.7-.2-1.5.4-2l3-1.9c.7-.4 1.5-.2 2 .4.5.7.3 1.5-.4 2zM37.8 22.7l-2 3c-.4.7-1.3.8-2 .4s-.8-1.3-.4-2l2-3c.4-.7 1.3-.8 2-.4.6.5.8 1.3.4 2zM43.5 25.2l-.9 3.4c-.2.8-1 1.2-1.7 1-.8-.2-1.2-1-1-1.7l.9-3.4c.2-.8 1-1.2 1.7-1 .7.1 1.2.9 1 1.7z"></path></g></g></svg>